General
Unique ID                                : 239922552567322408299791748514832785363 (0xB47F672004E3BB77A2E55F1BFCD91FD3)
Complete name                            : /Users/matthew/Downloads/WNYW-1006826_OG.mkv
Format                                   : Matroska
Format version                           : Version 2
File size                                : 1.95 GiB
Duration                                 : 34 min 18 s
Overall bit rate mode                    : Variable
Overall bit rate                         : 8 150 kb/s
Frame rate                               : 29.970 FPS
Encoded date                             : 2023-05-19 17:43:35 UTC
Writing application                      : MakeMKV v1.17.3 win(x64-release)
Writing library                          : libmakemkv v1.17.3 (1.3.10/1.5.2) win(x64-release)

Video
ID                                       : 1
ID in the original source medium         : 224 (0xE0)
Format                                   : MPEG Video
Format version                           : Version 2
Format profile                           : Main@Main
Format settings                          : CustomMatrix / BVOP
Format settings, BVOP                    : Yes
Format settings, Matrix                  : Custom
Format settings, GOP                     : M=3, N=15
Format settings, picture structure       : Frame
Codec ID                                 : V_MPEG2
Codec ID/Info                            : MPEG 1 or 2 Video
Duration                                 : 34 min 18 s
Bit rate mode                            : Variable
Bit rate                                 : 7 760 kb/s
Maximum bit rate                         : 9 334 kb/s
Width                                    : 720 pixels
Height                                   : 480 pixels
Display aspect ratio                     : 4:3
Frame rate mode                          : Constant
Frame rate                               : 29.970 (30000/1001) FPS
Standard                                 : NTSC
Color space                              : YUV
Chroma subsampling                       : 4:2:0
Bit depth                                : 8 bits
Scan type                                : Interlaced
Scan order                               : Top Field First
Compression mode                         : Lossy
Bits/(Pixel*Frame)                       : 0.749
Time code of first frame                 : 00:00:00:00
Time code source                         : Group of pictures header
GOP, Open/Closed                         : Open
GOP, Open/Closed of first frame          : Closed
Stream size                              : 1.86 GiB (95%)
Language                                 : English
Default                                  : No
Forced                                   : No
Color primaries                          : BT.601 NTSC
Transfer characteristics                 : BT.601
Matrix coefficients                      : BT.601
Original source medium                   : DVD-Video

Audio
ID                                       : 2
ID in the original source medium         : 189 (0xBD)128 (0x80)
Format                                   : AC-3
Format/Info                              : Audio Coding 3
Commercial name                          : Dolby Digital
Codec ID                                 : A_AC3
Duration                                 : 34 min 18 s
Bit rate mode                            : Constant
Bit rate                                 : 384 kb/s
Channel(s)                               : 2 channels
Channel layout                           : L R
Sampling rate                            : 48.0 kHz
Frame rate                               : 31.250 FPS (1536 SPF)
Compression mode                         : Lossy
Stream size                              : 94.2 MiB (5%)
Title                                    : Stereo
Language                                 : English
Service kind                             : Complete Main
Default                                  : Yes
Forced                                   : No
Original source medium                   : DVD-Video

Menu
00:00:00.066                             : en:Chapter 01
00:05:14.380                             : en:Chapter 02
00:10:06.172                             : en:Chapter 03
00:16:00.025                             : en:Chapter 04
00:22:10.896                             : en:Chapter 05
00:27:06.691                             : en:Chapter 06
00:32:52.537                             : en:Chapter 07